# AST/ASF file generated using VICON BodyLanguage
# -----------------------------------------------
:version 1.10
:name VICON
:units
  mass 1.0
  length 0.45
  angle deg
:documentation
   .ast/.asf automatically generated from VICON data using
   VICON BodyBuilder and BodyLanguage model FoxedUp or BRILLIANT.MOD
:root
   order TX TY TZ RX RY RZ
   axis XYZ
   position 0 0 0  
   orientation 0 0 0 
:bonedata
  begin
     id 1 
     name lhipjoint
     direction 0.621036 -0.695554 0.361275 
     length 2.46325 
     axis 0 0 0  XYZ
  end
  begin
     id 2 
     name lfemur
     direction 0.34202 -0.939693 0  
     length 6.54784  
     axis 0 0 20  XYZ
    dof rx ry rz
    limits (-160.0 20.0)
           (-70.0 70.0)
           (-60.0 70.0)
  end
  begin
     id 3 
     name ltibia
     direction 0.34202 -0.939693 0   
     length 7.84737   
     axis 0 0 20   XYZ
    dof rx
    limits (-10.0 170.0)
  end
  begin
     id 4 
     name lfoot
     direction 0.0790693 -0.217241 0.97291   
     length 2.59747   
     axis -90 7.62852e-016 20   XYZ
    dof rx rz
    limits (-45.0 90.0)
           (-70.0 20.0)
  end
  begin
     id 5 
     name ltoes
     direction 1.53572e-011 -4.21898e-011 1   
     length 1.29919   
     axis -90 7.62852e-016 20   XYZ
    dof rx
    limits (-90.0 20.0)
  end
  begin
     id 6 
     name rhipjoint
     direction -0.602353 -0.708375 0.367935   
     length 2.41867  
     axis 0 0 0  XYZ 
  end
  begin
     id 7 
     name rfemur
     direction -0.34202 -0.939693 0   
     length 6.92065   
     axis 0 0 -20   XYZ
    dof rx ry rz
    limits (-160.0 20.0)
           (-70.0 70.0)
           (-70.0 60.0)
  end
  begin
     id 8 
     name rtibia
     direction -0.34202 -0.939693 0   
     length 7.88883   
     axis 0 0 -20   XYZ
    dof rx
    limits (-10.0 170.0)
 end
 begin
     id 9 
     name rfoot
     direction -0.0768692 -0.211196 0.974416   
     length 2.43714  
     axis -90 -7.62852e-016 -20   XYZ
    dof rx rz
    limits (-45.0 90.0)
           (-20.0 70.0)
  end
  begin
     id 10 
     name rtoes
     direction -1.53575e-011 -4.21933e-011 1   
     length 1.22113   
     axis -90 -7.62852e-016 -20   XYZ
    dof rx
    limits (-90.0 20.0)
  end
  begin
     id 11 
     name lowerback
     direction 0.0197937 0.98943 -0.143655   
     length 2.16931   
     axis 0 0 0   XYZ
    dof rx ry rz
    limits (-20.0 45.0)
           (-30.0 30.0)
           (-30.0 30.0)
  end
  begin
     id 12 
     name upperback
     direction -0.00183968 0.999975 0.00684288   
     length 2.17221   
     axis 0 0 0   XYZ
    dof rx ry rz
    limits (-20.0 45.0)
           (-30.0 30.0)
           (-30.0 30.0)
  end
  begin
     id 13 
     name thorax
     direction -0.00950244 0.997208 0.0740685   
     length 2.22549   
     axis 0 0 0   XYZ
    dof rx ry rz
    limits (-20.0 45.0)
           (-30.0 30.0)
           (-30.0 30.0)
  end
  begin
     id 14 
     name lowerneck
     direction 0.0218238 0.996215 0.0841425   
     length 1.77269   
     axis 0 0 0   XYZ
    dof rx ry rz
    limits (-20.0 45.0)
           (-30.0 30.0)
           (-30.0 30.0)
  end
  begin
     id 15 
     name upperneck
     direction -0.00430652 0.994214 -0.107332   
     length 1.76534   
     axis 0 0 0   XYZ
    dof rx ry rz
    limits (-20.0 45.0)
           (-30.0 30.0)
           (-30.0 30.0)
  end
  begin
     id 16
     name head
     direction -0.00328946 0.998959 -0.0454998  
     length 1.82634  
     axis 0 0 0   XYZ
    dof rx ry rz
    limits (-20.0 45.0)
           (-30.0 30.0)
           (-30.0 30.0)
  end
  begin
     id 17 
     name lclavicle
     direction 0.970962 0.239191 0.00450212  
     length 3.84872  
     axis 0 0 0   XYZ
    dof ry rz
    limits (-20.0 10.0)
           (0.0 20.0)
  end
  begin
     id 18 
     name lhumerus
     direction 1 -4.48966e-011 5.74696e-028   
     length 5.22771   
     axis 180 -30 -90   XYZ
    dof rx ry rz
    limits (-60.0 90.0)
           (-90.0 90.0)
           (-90.0 90.0)
  end
  begin
     id 19
     name lradius
     direction 1 -4.4896e-011 4.25109e-027   
     length 3.45251   
     axis 180 -30 -90   XYZ
    dof rx
    limits (-10.0 170.0)
  end
  begin
     id 20
     name lwrist
     direction 1 -4.48971e-011 1.15382e-027   
     length 1.72626   
     axis -5.52449e-016 90 90   XYZ
    dof ry
    limits (-180.0 0.0)
 end
  begin
     id 21 
     name lhand
     direction 1 -4.49034e-011 2.30765e-027   
     length 0.552119   
     axis -1.47248e-015 90 90   XYZ
    dof rx rz
    limits (-90.0 90.0)
           (-45.0 45.0)
  end
  begin
     id 22 
     name lfingers
     direction 1 -4.48951e-011 4.61529e-027   
     length 0.445133   
     axis -2.94495e-015 90 90   XYZ
    dof rx
    limits (0.0 90.0)
  end
  begin
     id 23
     name lthumb
     direction 0.707107 -6.34991e-011 0.707107   
     length 0.639124   
     axis -90 45 2.85299e-015   XYZ
    dof rx rz
    limits (-45.0 45.0)
           (-45.0 45.0)
  end
  begin
     id 24 
     name rclavicle
     direction -0.97424 0.222511 -0.0366699   
     length 3.73439  
     axis 0 0 0   XYZ 
    dof ry rz
    limits (-10.0 20.0)
           (-20.0 0.0)
  end
  begin
     id 25 
     name rhumerus
     direction -1 -4.48956e-011 -4.97258e-028  
     length 5.2398   
     axis 180 30 90   XYZ
    dof rx ry rz
    limits (-90.0 60.0)
           (-90.0 90.0)
           (-90.0 90.0)
  end
  begin
     id 26 
     name rradius
     direction -1 -4.4897e-011 -1.72611e-027   
     length 3.48042   
     axis 180 30 90   XYZ
    dof rx
    limits (-10.0 170.0)
  end
  begin
     id 27 
     name rwrist
     direction -1 -4.48976e-011 1.15382e-027   
     length 1.74021   
     axis -5.52449e-016 -90 -90   XYZ
    dof ry
    limits (-180.0 0.0)
  end
  begin
     id 28
     name rhand
     direction -1 -4.48963e-011 2.30765e-027   
     length 0.618713   
     axis -1.47248e-015 -90 -90   XYZ
    dof rx rz
    limits (-90.0 90.0)
           (-45.0 45.0)
  end
  begin
     id 29
     name rfingers
     direction -1 -4.4888e-011 4.61529e-027   
     length 0.498823   
     axis -2.94495e-015 -90 -90   XYZ
    dof rx
    limits (0.0 90.0)
  end
  begin
     id 30
     name rthumb
     direction -0.707107 -6.34968e-011 0.707107   
     length 0.716213   
     axis -90 -45 -2.85299e-015   XYZ
    dof rx rz
    limits (-45.0 45.0)
           (-45.0 45.0)
  end
:hierarchy
  begin
    root lhipjoint rhipjoint lowerback
    lhipjoint lfemur
    lfemur ltibia
    ltibia lfoot
    lfoot ltoes
    rhipjoint rfemur
    rfemur rtibia
    rtibia rfoot
    rfoot rtoes
    lowerback upperback
    upperback thorax
    thorax lowerneck lclavicle rclavicle
    lowerneck upperneck
    upperneck head
    lclavicle lhumerus
    lhumerus lradius
    lradius lwrist
    lwrist lhand lthumb
    lhand lfingers
    rclavicle rhumerus
    rhumerus rradius
    rradius rwrist
    rwrist rhand rthumb
    rhand rfingers
  end

#!OML:ASF G:\JayActor3\Patient Classification 1\Patient 1\Session 5\male.ASF
:FULLY-SPECIFIED
:DEGREES
19
root -32.3073 16.4998 -5.54497 173.517 85.9997 169.045
lowerback 1.70948 -1.71884 -0.759451
upperback 2.61955 -2.2576 -0.286451
thorax 1.74448 -1.12479 0.135045
lowerneck -7.46918 -1.00157 1.95434
upperneck -4.12382 -1.33183 1.80423
head -0.0441205 -0.628414 0.201737
rclavicle -7.20594e-015 1.11319e-014
rhumerus -38.4535 -20.3608 -76.1861
rradius 19.0885
rwrist 13.9011
rhand -18.2537 -4.25411
rfingers 7.12502
rthumb 8.02552 -34.0817
lclavicle -7.20594e-015 1.11319e-014
lhumerus -24.706 8.14286 87.7924
lradius 20.4168
lwrist 4.24234
lhand -16.7714 12.6863
lfingers 7.12502
lthumb 9.45589 42.4542
rfemur -40.7462 7.10716 19.1087
rtibia 34.4243
rfoot -16.0162 -18.9662
rtoes -2.81848
lfemur 26.2205 10.5547 -21.0354
ltibia 2.22639e-014
lfoot -9.29034 0.468248
ltoes -24.3944
20
root -32.1324 16.5242 -5.5416 173.574 86.0166 169.128
lowerback 1.57033 -1.65656 -0.631753
upperback 2.55076 -2.17632 -0.23263
thorax 1.74828 -1.08327 0.115651
lowerneck -7.49891 -1.03637 1.9172
upperneck -4.0518 -1.38032 1.74225
head -0.0173931 -0.652219 0.187574
rclavicle -9.26834e-015 1.72943e-014
rhumerus -38.6624 -20.5091 -76.0105
rradius 19.0246
rwrist 13.9616
rhand -18.1822 -4.27791
rfingers 7.12502
rthumb 8.0945 -34.1029
lclavicle -9.26834e-015 1.72943e-014
lhumerus -25.2338 9.20466 87.3807
lradius 20.0756
lwrist 3.87166
lhand -16.7719 12.7464
lfingers 7.12502
lthumb 9.45542 42.5143
rfemur -40.3994 6.93239 19.3249
rtibia 34.811
rfoot -15.6245 -18.9576
rtoes -2.58391
lfemur 26.7292 10.4772 -20.7945
ltibia -7.31528e-014
lfoot -7.83466 0.392106
ltoes -24.7165
21
root -31.9556 16.5491 -5.53716 173.249 86.0817 168.816
lowerback 1.39813 -1.58036 -0.536358
upperback 2.4792 -2.07662 -0.188285
thorax 1.76872 -1.03311 0.103871
lowerneck -7.51118 -1.06473 1.89264
upperneck -3.97884 -1.42075 1.68384
head 0.00674308 -0.672344 0.172684
rclavicle -2.23136e-014 9.24349e-015
rhumerus -38.8429 -20.6541 -75.8528
rradius 18.948
rwrist 14.0494
rhand -18.0789 -4.3228
rfingers 7.12502
rthumb 8.19416 -34.1439
lclavicle -2.23136e-014 9.24349e-015
lhumerus -25.8082 10.2411 86.9256
lradius 19.7764
lwrist 3.578
lhand -16.7936 12.797
lfingers 7.12502
lthumb 9.43454 42.5658
rfemur -40.0385 6.79924 19.5232
rtibia 35.1874
rfoot -15.2378 -18.7456
rtoes -2.4764
lfemur 27.2122 10.445 -20.5713
ltibia -9.85972e-014
lfoot -6.2161 0.377645
ltoes -24.8066
22
root -31.7771 16.5738 -5.53163 172.588 86.1876 168.162
lowerback 1.19797 -1.49834 -0.469705
upperback 2.41054 -1.96917 -0.14999
thorax 1.80877 -0.979533 0.101477
lowerneck -7.53393 -1.08088 1.86648
upperneck -3.88333 -1.44557 1.63773
head 0.0396655 -0.684386 0.16193
rclavicle 1.22128e-014 -2.03754e-015
rhumerus -38.9744 -20.7857 -75.7206
rradius 18.8569
rwrist 14.1693
rhand -17.9521 -4.38067
rfingers 7.12502
rthumb 8.31654 -34.197
lclavicle 1.22128e-014 -2.03754e-015
lhumerus -26.4153 11.2543 86.4296
lradius 19.5158
lwrist 3.35752
lhand -16.8037 12.8129
lfingers 7.12502
lthumb 9.42476 42.5822
rfemur -39.6457 6.71575 19.7071
rtibia 35.5579
rfoot -14.8885 -18.4062
rtoes -2.30841
lfemur 27.6759 10.4521 -20.3631
ltibia 2.54444e-014
lfoot -4.45296 0.417827
ltoes -24.7471
23
root -31.5975 16.5983 -5.52487 171.726 86.3187 167.302
lowerback 0.976637 -1.41106 -0.422966
upperback 2.33707 -1.85483 -0.117159
thorax 1.85635 -0.922849 0.104646
lowerneck -7.55212 -1.09087 1.8519
upperneck -3.75821 -1.46408 1.59419
head 0.0809486 -0.693402 0.150098
rclavicle 1.51519e-014 -4.3422e-015
rhumerus -39.0766 -20.9156 -75.6053
rradius 18.7595
rwrist 14.3176
rhand -17.7979 -4.4355
rfingers 7.12502
rthumb 8.46536 -34.2458
lclavicle 1.51519e-014 -4.3422e-015
lhumerus -27.0593 12.1967 85.9046
lradius 19.2942
lwrist 3.22692
lhand -16.8098 12.8805
lfingers 7.12502
lthumb 9.41885 42.65
rfemur -39.2213 6.68536 19.8814
rtibia 35.9181
rfoot -14.5883 -18.0333
rtoes -2.05375
lfemur 28.113 10.4824 -20.1611
ltibia 9.54166e-015
lfoot -2.54909 0.50286
ltoes -24.6075
24
root -31.4169 16.6233 -5.51686 170.662 86.4472 166.241
lowerback 0.751885 -1.32664 -0.398455
upperback 2.25072 -1.74445 -0.0905372
thorax 1.89323 -0.868495 0.114537
lowerneck -7.54626 -1.09602 1.8476
upperneck -3.59659 -1.478 1.55375
head 0.129587 -0.700423 0.137602
rclavicle 5.3237e-015 2.17421e-015
rhumerus -39.1673 -21.0372 -75.5042
rradius 18.6651
rwrist 14.4812
rhand -17.6211 -4.4913
rfingers 7.12502
rthumb 8.63601 -34.2947
lclavicle 5.3237e-015 2.17421e-015
lhumerus -27.7491 13.0457 85.3548
lradius 19.1089
lwrist 3.18691
lhand -16.8007 13.0047
lfingers 7.12502
lthumb 9.42761 42.7738
rfemur -38.7554 6.69181 20.0397
rtibia 36.2558
rfoot -14.3622 -17.6943
rtoes -1.67873
lfemur 28.5264 10.5094 -19.9663
ltibia 7.63333e-014
lfoot -0.506115 0.652099
ltoes -24.3574
25
root -31.2354 16.6488 -5.50786 169.542 86.5547 165.14
lowerback 0.544888 -1.25415 -0.387346
upperback 2.15612 -1.65002 -0.065004
thorax 1.91216 -0.822276 0.131719
lowerneck -7.55336 -1.09399 1.84471
upperneck -3.3767 -1.48483 1.51489
head 0.198474 -0.703639 0.125166
rclavicle -2.38604e-014 3.80176e-015
rhumerus -39.2374 -21.1304 -75.4245
rradius 18.5826
rwrist 14.6391
rhand -17.4307 -4.54187
rfingers 7.12502
rthumb 8.8197 -34.3376
lclavicle -2.38604e-014 3.80176e-015
lhumerus -28.4705 13.7997 84.7924
lradius 18.9593
lwrist 3.22991
lhand -16.7751 13.1941
lfingers 7.12502
lthumb 9.45234 42.9622
rfemur -38.2351 6.71441 20.19
rtibia 36.5604
rfoot -14.2149 -17.4089
rtoes -1.17334
lfemur 28.9254 10.5164 -19.7748
ltibia -3.18055e-014
lfoot 1.67182 0.889929
ltoes -24.0877
26
root -31.0526 16.6747 -5.49809 168.552 86.6178 164.198
lowerback 0.373379 -1.20025 -0.381341
upperback 2.05267 -1.5804 -0.0391085
thorax 1.90237 -0.788445 0.153141
lowerneck -7.56793 -1.08877 1.84318
upperneck -3.09209 -1.49003 1.47297
head 0.288818 -0.705867 0.111263
rclavicle 1.14115e-014 2.18663e-015
rhumerus -39.2994 -21.1815 -75.3689
rradius 18.5225
rwrist 14.7649
rhand -17.2322 -4.58757
rfingers 7.12502
rthumb 9.01133 -34.3751
lclavicle 1.14115e-014 2.18663e-015
lhumerus -29.2275 14.426 84.2326
lradius 18.8507
lwrist 3.36613
lhand -16.7214 13.4114
lfingers 7.12502
lthumb 9.5042 43.1771
rfemur -37.642 6.72064 20.3422
rtibia 36.8266
rfoot -14.1722 -17.1487
rtoes -0.513217
lfemur 29.3286 10.48 -19.581
ltibia -1.90833e-014
lfoot 4.01819 1.28173
ltoes -24.1104
27
root -30.8684 16.7011 -5.48788 167.917 86.6226 163.656
lowerback 0.25448 -1.16797 -0.366427
upperback 1.94228 -1.53968 -0.0133317
thorax 1.85583 -0.768765 0.170532
lowerneck -7.58922 -1.08107 1.83843
upperneck -2.74716 -1.49372 1.43659
head 0.399435 -0.707004 0.0992729
rclavicle 7.45443e-017 7.7526e-015
rhumerus -39.3596 -21.1884 -75.3394
rradius 18.4919
rwrist 14.847
rhand -17.0252 -4.63268
rfingers 7.12502
rthumb 9.21106 -34.4115
lclavicle 7.45443e-017 7.7526e-015
lhumerus -30.0113 14.9076 83.6855
lradius 18.7792
lwrist 3.57631
lhand -16.6362 13.6337
lfingers 7.12502
lthumb 9.58634 43.3956
rfemur -36.9622 6.67542 20.5137
rtibia 37.0548
rfoot -14.2087 -16.8918
rtoes 0.230979
lfemur 29.7506 10.3844 -19.3767
ltibia 1.90833e-014
lfoot 6.52195 1.82353
ltoes -24.1671
28
root -30.6833 16.7279 -5.47742 167.732 86.562 163.609
lowerback 0.194889 -1.15686 -0.336098
upperback 1.82243 -1.52733 0.0101501
thorax 1.76602 -0.762864 0.178047
lowerneck -7.60598 -1.07645 1.83055
upperneck -2.34492 -1.50289 1.40638
head 0.527724 -0.710608 0.0892835
rclavicle -2.33324e-014 -6.36111e-015
rhumerus -39.4316 -21.155 -75.3318
rradius 18.4941
rwrist 14.8719
rhand -16.8008 -4.65968
rfingers 7.12502
rthumb 9.42756 -34.4288
lclavicle -2.33324e-014 -6.36111e-015
lhumerus -30.8215 15.2213 83.1635
lradius 18.7484
lwrist 3.849
lhand -16.5021 13.8135
lfingers 7.12502
lthumb 9.71573 43.5694
rfemur -36.1925 6.56986 20.7054
rtibia 37.2453
rfoot -14.337 -16.6318
rtoes 0.982157
lfemur 30.1983 10.2212 -19.1604
ltibia -7.31528e-014
lfoot 9.16485 2.4966
ltoes -24.1747
